<svg xmlns="http://www.w3.org/2000/svg" xml:space="preserve" width="2000" height="146" data-id="lg_MbREv1Sn79uBGkpAi0" data-version="1" viewBox="0 0 2000 146"><g data-padding="20"><g transform="translate(10 2.58)scale(.96466)"><rect width="484.454" height="87.01" x="377.233" y="-372.464" fill="none" rx="0" ry="0" transform="translate(438.27 431.66)"/><path fill="#43cb3f" d="M846.72 126.93q-6.78 0-12.05-2.31-5.28-2.31-8.93-6.35-3.66-4.04-5.55-9.24-1.88-5.2-1.88-11.05 0-6.39 2.11-11.7 2.12-5.32 5.97-9.21 3.85-3.88 9.16-6.04 5.32-2.16 11.71-2.16 4.16 0 7.39.85t5.31 1.89 2.62 1.65l-3.77 7.7q-2.08-1.85-5.12-3-3.04-1.16-7.12-1.16-5.32 0-9.59 2.62t-6.78 7.39q-2.5 4.78-2.5 11.32 0 5.78 2.16 10.51 2.15 4.74 6.35 7.59t10.2 2.85q3.31 0 6.51-.89 3.19-.88 6.58-2.96l2.54 7.31q-1 .93-3.39 1.97-2.38 1.04-5.5 1.73t-6.43.69m29.42-.55h-8.62V69.79h8.62v23.1h19.95v-23.1h8.62v56.59h-8.62v-26.25h-19.95Zm29.88.01 27.1-56.67h.85l27.26 56.67h-9.93l-4.86-11.09H920.5l-4.86 11.09Zm27.64-40.27h-.15l-3.39 7.7-6.16 13.71h19.1l-6.09-13.63Zm48.28 40.26h-8.55V77.33h-14.47v-7.54h37.65v7.54h-14.63Zm38.89 0h-8.55V77.33H997.8v-7.54h37.66v7.54h-14.63Zm29.18 0h-8.62V69.79h8.62Zm52.28.01h-1.15l-33.11-36.65.23 6.16v30.49h-8.63V69.72h1.08l33.27 37.11-.31-6.46V69.8h8.62Zm35.04.77q-6.39 0-11.74-2.23-5.36-2.23-9.24-6.2-3.89-3.96-6.01-9.39t-2.12-11.75q0-6.23 2.16-11.47 2.15-5.23 6.08-9.08t9.32-5.97 11.78-2.12q5 0 8.66.89 3.66.88 5.85 1.92 2.2 1.04 2.81 1.66l-3.38 7.23q-.54-.46-2.16-1.38-1.62-.93-4.5-1.7-2.89-.77-7.44-.77-6.31 0-10.78 2.74-4.46 2.73-6.85 7.35t-2.39 10.24q0 6.55 2.62 11.59t7.16 7.86q4.55 2.81 10.32 2.81 3.31 0 6.74-.85t5.81-2.85v-10.93h-11.62v-7.94h20.17V119q-2.54 3.23-8.01 5.7-5.47 2.46-13.24 2.46m56.35-16.4h-26.41v-7.39h26.41Zm27.26 15.62h-16.17V69.79h14.4q6.93 0 10.97 1.38 4.04 1.39 6.01 3.55 1.96 2.15 2.58 4.54.61 2.39.61 4.46 0 2.24-.65 4.66-.66 2.43-2.2 4.47t-4.23 3.27q5.77 1.46 8.2 5.05 2.42 3.58 2.42 7.96 0 3.01-.69 6.09t-2.89 5.58q-2.19 2.5-6.58 4.04t-11.78 1.54m-7.7-49.28v16.71h7.31q4.01 0 6.16-1.35 2.16-1.34 3.05-3.5.88-2.16.88-4.54 0-2-.88-3.66-.89-1.66-3.16-2.66t-6.43-1Zm0 23.56v18.48h8.85q3.93 0 6.28-.92t3.58-2.39q1.23-1.46 1.62-3.19.38-1.73.38-3.43 0-4-2.69-6.27-2.7-2.28-8.47-2.28Zm63.61 25.72h-27.33V69.79h24.79v7.54h-16.25v15.63h13.09v7.7h-13.09v18.1h18.79Zm32.56 0h-27.33V69.79h24.79v7.54h-16.25v15.63h13.09v7.7h-13.09v18.1h18.79Z"/><path fill="#e1e587" stroke="#43cb3f" stroke-width="5" d="M743.117 69.654h47.998m14.137-20.44V-.206M792.834 56.23l-34.496-34.496m38.22 58.757-34.496 34.496m90.402-95.288-35.4 35.4" vector-effect="non-scaling-stroke"/></g><path fill="transparent" stroke="transparent" d="M717 0h566v146H717z"/></g></svg>